<svg width="136" height="35" viewBox="0 0 136 35" fill="none" xmlns="http://www.w3.org/2000/svg">
<g id="Frame 33">
<g id="Group 27">
<path id="Vector" d="M57.19 17.27H52.87V21.59H57.19V17.27ZM52.87 12.95H48.55V17.27H52.87V12.95ZM52.87 8.62997H48.55V12.95H52.87V8.62997ZM52.87 4.30997H48.55V8.62997H52.87V4.30997ZM57.19 -3.05176e-05H52.87V4.30997H57.19V-3.05176e-05ZM74.47 25.9H70.16V30.22H74.47V25.9ZM78.79 21.58H74.47V25.9H78.79V21.58ZM61.51 21.58H57.19V25.9H61.51V21.58ZM83.1 17.26H78.78V21.58H83.1V17.26ZM87.44 12.94H83.12V17.26H87.44V12.94Z" fill="#485F31"/>
<path id="Vector_2" d="M87.44 12.95H83.12V17.27H87.44V12.95ZM87.44 8.62997H83.12V12.95H87.44V8.62997ZM87.44 4.30997H83.12V8.62997H87.44V4.30997ZM83.1 -3.05176e-05H78.78V4.30997H83.1V-3.05176e-05Z" fill="#485F31"/>
<path id="Vector_3" d="M78.78 0.00997925H74.46V4.31998H78.78V0.00997925ZM74.46 0.00997925H70.15V4.31998H74.46V0.00997925ZM65.82 0.00997925H61.5V4.31998H65.82V0.00997925ZM61.5 0.00997925H57.18V4.31998H61.5V0.00997925ZM65.82 25.91H61.5V30.23H65.82V25.91ZM72.31 4.32999H67.99V8.64999H72.31V4.32999ZM67.99 4.32999H63.67V8.64999H67.99V4.32999ZM70.15 30.23H65.84V34.55H70.15V30.23Z" fill="#485F31"/>
<path id="Vector_4" d="M83.1 4.31985L81.31 3.31985L72.31 2.86984L71.46 5.84988H68V33.2599L70.16 30.2099L74.48 25.8899L78.8 21.5699L83.14 17.2498L85.3 8.61984L83.12 4.29984L83.1 4.31985ZM83.1 12.9599H78.78V8.63986H83.1V12.9599ZM25.91 25.9099H21.59V30.2299H25.91V25.9099ZM30.23 21.5899H25.91V25.9099H30.23V21.5899ZM12.95 21.5899H8.63V25.9099H12.95V21.5899ZM8.63 17.2699H4.31V21.5899H8.63V17.2699ZM34.54 17.2699H30.22V21.5899H34.54V17.2699ZM4.31 12.9499H0V17.2699H4.31V12.9499ZM4.31 8.62985H0V12.9499H4.31V8.62985ZM4.31 4.30984H0V8.62985H4.31V4.30984ZM38.87 12.9398H34.56V17.2599H38.87V12.9398Z" fill="#485F31"/>
<path id="Vector_5" d="M38.88 12.95H34.57V17.27H38.88V12.95ZM38.88 8.62997H34.57V12.95H38.88V8.62997ZM38.88 4.30997H34.57V8.62997H38.88V4.30997ZM34.55 -3.05176e-05H30.23V4.30997H34.55V-3.05176e-05ZM30.23 -3.05176e-05H25.91V4.30997H30.23V-3.05176e-05ZM25.91 -3.05176e-05H21.59V4.30997H25.91V-3.05176e-05ZM17.26 -3.05176e-05H12.94V4.30997H17.26V-3.05176e-05ZM12.94 -3.05176e-05H8.61998V4.30997H12.94V-3.05176e-05ZM8.61998 -3.05176e-05H4.29999V4.30997H8.61998V-3.05176e-05ZM17.25 25.9H12.93V30.22H17.25V25.9ZM23.72 4.31998H19.4V8.63998H23.72V4.31998ZM19.4 4.31998H15.09V8.63998H19.4V4.31998ZM21.56 30.22H17.24V34.54H21.56V30.22Z" fill="#485F31"/>
<path id="Vector_6" d="M101.42 12.9499H97.11V17.2699H101.42V12.9499ZM101.42 8.62991H97.11V12.9499H101.42V8.62991ZM101.42 4.30991H97.11V8.62991H101.42V4.30991Z" fill="#485F31"/>
<path id="Vector_7" d="M135.99 12.9499H131.68V17.2699H135.99V12.9499ZM135.99 8.62991H131.68V12.9499H135.99V8.62991ZM135.99 4.30991H131.68V8.62991H135.99V4.30991ZM113.08 5.84995H116.54V33.2599L114.38 30.2099L110.07 25.8899L105.75 21.5699L101.41 17.2499L99.25 8.6199L101.43 4.2999L103.22 3.2999L112.22 2.84995L113.07 5.82993L113.08 5.84995Z" fill="#485F31"/>
<path id="Vector_8" d="M105.74 17.27H101.42V21.59H105.74V17.27ZM105.74 0.00997925H101.42V4.31998H105.74V0.00997925ZM123.02 25.91H118.7V30.23H123.02V25.91ZM127.34 21.59H123.02V25.91H127.34V21.59ZM110.06 21.59H105.74V25.91H110.06V21.59ZM131.66 17.27H127.34V21.59H131.66V17.27ZM131.66 0.00997925H127.34V4.31998H131.66V0.00997925ZM127.34 0.00997925H123.02V4.31998H127.34V0.00997925ZM123.02 0.00997925H118.7V4.31998H123.02V0.00997925ZM114.37 0.00997925H110.05V4.31998H114.37V0.00997925Z" fill="#485F31"/>
</g>
</g>
</svg>
