<svg width="39" height="40" viewBox="0 0 39 40" fill="none" xmlns="http://www.w3.org/2000/svg">
<g id="Frame 427321067">
<g id="Group 18">
<path id="Vector" d="M30.2713 36.6956V40H7.7289V36.6956H30.2713ZM38 1.99997V32.3999H0V1.99997H38ZM34.7797 5.30432H3.22034V29.426H34.7797V5.30432ZM12.8814 15.8782V23.1478H9.66103V15.8782H12.8814ZM20.6103 11.5826V23.1478H17.3899V11.5826H20.6103ZM28.339 14.8869V23.1478H25.1186V14.8869H28.339Z" fill="#C8EA8E"/>
<rect id="Rectangle 52" x="35" y="-3.05176e-05" width="3" height="3" fill="#C8EA8E"/>
<rect id="Rectangle 53" x="36" y="2.99997" width="3" height="3" fill="#C8EA8E"/>
<rect id="Rectangle 55" x="3" y="4.99997" width="3" height="3" fill="#C8EA8E"/>
<rect id="Rectangle 58" x="32" y="27" width="3" height="3" fill="#C8EA8E"/>
<rect id="Rectangle 56" x="25" y="35" width="3" height="3" fill="#C8EA8E"/>
<rect id="Rectangle 57" x="27" y="14" width="3" height="3" fill="#C8EA8E"/>
</g>
</g>
</svg>
