<svg width="47" height="48" viewBox="0 0 47 48" fill="none" xmlns="http://www.w3.org/2000/svg">
<g id="Frame 427321062">
<g id="Group 4">
<path id="Union" fill-rule="evenodd" clip-rule="evenodd" d="M16.5212 4H30.4788V5.561H32.7576V7.12203H35.3211V8.68303H37.8848V10.467H40.1636V11.805H42.4423V13.366H44.7212V15.15H47L47 17.0524L47 22.9981V24.3579V28.307L47 30.4133L47 34.1907V37.155H44.7212V38.8902H42.4423V40.4085H40.1636V41.7099H37.8848V43.4451H35.3211V44.9634H32.7576V46.4817H30.4788V48H16.5212V46.4817H14.2424V44.9634H11.6787V43.4451H9.11511V41.7099H6.8363V40.4085H4.5575V38.8902H2.27881V37.155H0V34.1907V30.4133V28.307V24.3579V22.9981V17.0524V15.15H2.27881V13.366H4.5575V11.805H6.8363V10.467H9.11511V8.68303H11.6787V7.12203H14.2424V5.561H16.5212V4Z" fill="#021B02"/>
<path id="Union_2" fill-rule="evenodd" clip-rule="evenodd" d="M29.8848 9.79733H17.1151V11.361H15.0303V12.9248H12.6848V14.4885H10.3394V16.2755H8.25452V17.6158H6.16968V19.1796H4.08484V20.9667H2V34.1465H4.08484V35.9335H6.16968V37.4972H8.25452V38.8376H10.3394V40.6247H12.6848V42.1884H15.0303V43.7521H17.1151V45.3158H29.8848V43.7521H31.9697V42.1884H34.3151V40.6247H36.6606V38.8376H38.7454V37.4972H40.8303V35.9335H42.9151V34.1465H45V20.9667H42.9151V19.1796H40.8303V17.6158H38.7454V16.2755H36.6606V14.4885H34.3151V12.9248H31.9697V11.361H29.8848V9.79733Z" fill="#057003"/>
<path id="Union_3" fill-rule="evenodd" clip-rule="evenodd" d="M29.8848 0H17.1151V1.60767H15.0303V3.21537H12.6848V4.82305H10.3394V6.6604H8.25452V8.0384H6.16968V9.6461H4.08484V11.4834H2V25.0339H4.08484V26.8713H6.16968V28.4789H8.25452V29.857H10.3394V31.6943H12.6848V33.302H15.0303V34.9097H17.1151V36.5174H29.8848V34.9097H31.9697V33.302H34.3151V31.6943H36.6606V29.857H38.7454V28.4789H40.8303V26.8713H42.9151V25.0339H45V11.4834H42.9151V9.6461H40.8303V8.0384H38.7454V6.6604H36.6606V4.82305H34.3151V3.21537H31.9697V1.60767H29.8848V0Z" fill="#BAC304"/>
<path id="Union_4" fill-rule="evenodd" clip-rule="evenodd" d="M29.8849 9.79733H17.1152V11.165H15.0303V12.5326H12.6848V13.9003H10.3394V15.4633H8.25452V16.6356H6.1698V18.0032H4.08484V19.5662H2V31.0935H4.08484V32.6566H6.1698V34.0242H8.25452V35.1965H10.3394V36.7595H12.6848V38.1272H15.0303V39.4948H17.1152V40.8624H29.8849V39.4948H31.9697V38.1272H34.3151V36.7595H36.6606V35.1965H38.7454V34.0242H40.8304V32.6566H42.9151V31.0935H45V19.5662H42.9151V18.0032H40.8304V16.6356H38.7454V15.4633H36.6606V13.9003H34.3151V12.5326H31.9697V11.165H29.8849V9.79733Z" fill="white"/>
<path id="Union_5" fill-rule="evenodd" clip-rule="evenodd" d="M29.8848 2H17.1151V3.63259H15.0303V5.26516H12.6848V6.89776H10.3394V8.7636H8.25452V10.163H6.16968V11.7956H4.08484V13.6614H2V27.4218H4.08484V29.2877H6.16968V30.9203H8.25452V32.3196H10.3394V34.1854H12.6848V35.818H15.0303V37.4507H17.1151V39.0833H29.8848V37.4507H31.9697V35.818H34.3151V34.1854H36.6606V32.3196H38.7454V30.9203H40.8303V29.2877H42.9151V27.4218H45V13.6614H42.9151V11.7956H40.8303V10.163H38.7454V8.7636H36.6606V6.89776H34.3151V5.26516H31.9697V3.63259H29.8848V2Z" fill="#C8EA8E"/>
</g>
</g>
</svg>
