<svg width="17" height="14" viewBox="0 0 17 14" fill="none" xmlns="http://www.w3.org/2000/svg">
<path id="Vector" d="M15.2692 3.98495C15.2692 3.83176 15.2661 3.68029 15.2591 3.52986C15.9408 3.04191 16.5322 2.4311 17 1.73214C16.3647 2.00674 15.6887 2.1844 14.9964 2.25872C15.717 1.83276 16.2696 1.15152 16.5307 0.333991C15.856 0.727055 15.1098 1.00806 14.3163 1.15449C13.6805 0.45953 12.7733 0.0168898 11.7703 0.000441321C9.84404 -0.0301511 8.28254 1.53361 8.28254 3.49273C8.28254 3.77121 8.31286 4.04127 8.37304 4.30205C5.47236 4.12273 2.90197 2.67227 1.18259 0.485686C0.882583 1.00956 0.710462 1.62181 0.710462 2.27794C0.710462 3.51892 1.32623 4.62189 2.26183 5.27274C1.68906 5.24785 1.15252 5.08121 0.681916 4.80798V4.85355C0.681916 6.58799 1.88454 8.04119 3.48028 8.38024C3.18774 8.46017 2.87918 8.50177 2.56184 8.50027C2.34135 8.49918 2.12158 8.47606 1.90607 8.43128C2.34948 9.85262 3.63816 10.891 5.16383 10.9256C3.96978 11.8767 2.46564 12.4449 0.832596 12.4409C0.551026 12.4409 0.272784 12.4227 0 12.3898C1.54414 13.4074 3.37707 14 5.34746 14C11.7615 14.0015 15.2692 8.63826 15.2692 3.98495Z" fill="#398D44"/>
</svg>
