<svg width="29" height="42" viewBox="0 0 29 42" fill="none" xmlns="http://www.w3.org/2000/svg">
<path fill-rule="evenodd" clip-rule="evenodd" d="M13.4867 41.496C13.7388 41.8162 14.1095 42 14.5 42C14.6934 42.0001 14.8844 41.9551 15.0595 41.8679C15.2347 41.7808 15.3896 41.6538 15.5133 41.496L28.6937 24.6955C28.8717 24.4692 28.9778 24.1889 28.9969 23.8948C29.016 23.6006 28.9471 23.3076 28.8 23.0575L15.6171 0.657682C15.4987 0.456427 15.334 0.29047 15.1386 0.175418C14.9432 0.0603663 14.7234 0 14.5 0C14.2766 0 14.0568 0.0603662 13.8614 0.175418C13.666 0.290469 13.5013 0.456427 13.3829 0.657682L0.199983 23.0575C0.0529324 23.3076 -0.0159692 23.6006 0.00311589 23.8948C0.022201 24.1889 0.128297 24.4692 0.306257 24.6955L13.4867 41.496ZM25.3268 24.6126L14.5 30V29.9972L3.67896 24.62L14.5 38.4141L25.3268 24.6126ZM24.8466 21.6258L14.5 4.04141L4.15108 21.6296L14.5 26.7707L24.8466 21.6258Z" fill="#057003"/>
</svg>
