<svg width="1920" height="1080" viewBox="0 0 1920 1080" fill="none" xmlns="http://www.w3.org/2000/svg">
<rect width="1920" height="1080" fill="#E8F2D7"/>
<path d="M17.5316 81.7634L33.1778 81.7634L33.1778 68.1428L46.8581 68.1428L46.8581 101.531L62.464 101.531L62.464 117L80.0357 117L80.0357 92.0893L95.6418 92.0893L95.6418 66.1741L111.288 66.1741L111.288 46.2054L124.968 46.2054L124.968 108.603L142.54 108.603L142.54 96.9509L158.146 96.9509L158.146 79.4732L173.752 79.4732L173.752 74.491L191.323 74.491L191.323 62.558L204.964 62.558L204.964 59.5045L214.672 59.5045L214.672 67.7009L232.204 67.7009L232.204 29.4509L241.953 29.4509L241.953 44.5179L259.484 44.5179L259.484 38.6116L269.233 38.6116L269.233 44.5179L286.765 44.5179L286.765 37.3259L300.405 37.3259L300.405 21.0134L314.045 21.0134L314.045 17.0357L327.685 17.0357L327.685 9.44198L337.394 9.44198L337.394 31.2991L353.04 31.2991L353.04 38.9732L368.646 38.9732L368.646 55.6474L384.292 55.6474L384.292 89.0358L399.898 89.0358L399.898 96.4687L417.429 96.4688L417.429 85.7411L433.076 85.7411L433.076 59.8661L448.682 59.8661L448.682 39.8571L462.402 39.8571L462.402 74.4911L478.008 74.4911L478.008 85.4599L495.54 85.4599L495.54 79.4732L511.186 79.4732L511.186 39.8571L525.347 39.8571L525.347 18.241L537.142 18.241L537.142 28.0045L551.785 28.0045L551.785 39.8571L569.357 39.8571L569.357 24.2678L584 24.2678L584 0L0 -2.55275e-05L-4.43807e-06 101.531L17.5316 101.531L17.5316 81.7634Z" fill="white"/>
<path d="M1808.16 14.7797L1808.16 27.0961L1819.17 27.0961L1819.17 35.2787L1830.22 35.2787L1830.22 66.1122L1841.23 66.1122L1841.23 80.1841L1852.27 80.1841L1852.27 98.4463L1863.29 98.4463L1863.29 160L1875.69 160L1875.69 149.071L1886.7 149.071L1886.7 125.542L1896.36 125.542L1896.36 135.141L1907.4 135.141L1907.4 149.071L1919.77 149.071L1919.77 5.36016e-06L1797.15 0L1797.15 14.7797L1808.16 14.7797Z" fill="white"/>
<path d="M1559 14.7797L1570.04 14.7797L1570.04 18.9984L1582.42 18.9984L1582.42 11.2688L1593.43 11.2688L1593.43 1.50495e-06L1559 0L1559 14.7797Z" fill="white"/>
<path d="M1614.13 0.934354L1614.13 19.1683L1625.17 19.1683L1625.17 26.728L1637.54 26.728L1637.54 21.49L1648.56 21.49L1648.56 1.98639e-06L1603.11 0L1603.11 0.934353L1614.13 0.934354Z" fill="white"/>
</svg>
