<svg width="68" height="53" viewBox="0 0 68 53" fill="none" xmlns="http://www.w3.org/2000/svg">
<g id="Frame 34">
<g id="Group 28">
<path id="Vector" d="M62.53 33.67H57.72V38.48H52.91V43.29H48.1H43.29V48.1H38.48H33.67V43.29H28.86H24.05V38.48V33.67V28.86H19.24V24.05H14.4301V19.24V14.43V9.61997H19.24H24.05H28.86V14.43H33.67V19.24H38.48V14.43H33.67V9.61997H28.86V4.80997H24.05H19.24H14.4301V9.61997H9.62V14.43H4.81006H0V19.24H4.81006V24.05H9.62V28.86H14.4301V33.67H19.24V38.48V43.29H24.05V48.1H28.86V52.91H33.67H38.48H43.29H48.1V48.1H52.91V43.29H57.72V48.1H52.91V52.91H57.72V48.1H62.53V43.29H57.72V38.48H62.53H67.35V33.67V28.86V24.05H62.53V28.86V33.67Z" fill="#485F31"/>
<path id="Vector_2" d="M62.53 4.80997V9.61997V14.43V19.24H57.72V24.05H62.53V19.24H67.35V14.43V9.61997V4.80997H62.53Z" fill="#485F31"/>
<path id="Vector_3" d="M57.72 4.80997H62.53V-3.05176e-05H57.72H52.91V4.80997H57.72Z" fill="#485F31"/>
<path id="Vector_4" d="M52.91 33.67H48.1V38.48H52.91V33.67Z" fill="#485F31"/>
<path id="Vector_5" d="M43.29 9.61997H48.1H52.91V4.80997H48.1H43.29V9.61997H38.48V14.43H43.29V9.61997Z" fill="#485F31"/>
<path id="Vector_6" d="M24.05 14.43H19.24V19.24H24.05V14.43Z" fill="#485F31"/>
</g>
</g>
</svg>
