<svg width="9" height="28" viewBox="0 0 9 28" fill="none" xmlns="http://www.w3.org/2000/svg">
<g id="Frame 427321079">
<g id="Vector 2">
<path d="M7.5 1H1.5L2.5 19H6L7.5 1Z" fill="#FF9191"/>
<path d="M6.5 22.5H2.5V26H6.5V22.5Z" fill="#FF9191"/>
<path d="M7.5 1H1.5L2.5 19H6L7.5 1Z" stroke="#FF9191"/>
<path d="M6.5 22.5H2.5V26H6.5V22.5Z" stroke="#FF9191"/>
</g>
<path id="Vector 4" d="M3 21.5V22.5H4M4 22.5V21M4 22.5H5M5 22.5V21M5 22.5H6M6 22.5V21.5M6 22.5V23M6 23H7.5M6 23V24M6 24H8M6 24V25M6 25H7.5M6 25V27M6 25H5M5 25V27.5M5 25H4M4 25V27.5M4 25H3M3 25V27M3 25H1.5M3 25V24M3 24H1M3 24V23H1.5" stroke="#FF9191"/>
</g>
</svg>
