<svg width="1920" height="68" viewBox="0 0 1920 68" fill="none" xmlns="http://www.w3.org/2000/svg">
<path d="M1920 62H0V66H1920V62Z" fill="#485F31"/>
<path d="M1920 64H0V68H1920V64Z" fill="#485F31"/>
<path d="M1735.1 45.7999H1730.01V50.89H1735.1V45.7999Z" fill="#485F31"/>
<path d="M1735.1 30.53V35.62V40.71V45.8H1740.18V40.71V35.62V30.53H1735.1Z" fill="#485F31"/>
<path d="M1735.1 25.4399H1730.01V30.53H1735.1V25.4399Z" fill="#485F31"/>
<path d="M1719.83 50.88H1714.74V45.8H1719.83V40.71H1714.74V35.62V30.53V25.44V20.35V15.26H1709.65V20.35V25.44V30.53V35.62H1704.56V40.71H1709.65V45.8V50.88H1704.56H1699.47H1694.38V55.97H1699.47H1704.56H1709.65V61.06V66.15H1714.74V61.06V55.97H1719.83H1724.92H1730.01V50.88H1724.92H1719.83Z" fill="#485F31"/>
<path d="M1724.92 20.3499V25.4399H1730.01V20.3499V15.2599V10.1699H1724.92V15.2599V20.3499Z" fill="#485F31"/>
<path d="M1724.92 35.6199H1719.83V40.7099H1724.92V35.6199Z" fill="#485F31"/>
<path d="M1724.92 5.07996H1719.83V10.1699H1724.92V5.07996Z" fill="#485F31"/>
<path d="M1714.74 5.08002H1719.83V0H1714.74H1709.65H1704.56V5.08002H1709.65H1714.74Z" fill="#485F31"/>
<path d="M1704.56 30.53H1699.47V35.62H1704.56V30.53Z" fill="#485F31"/>
<path d="M1704.56 5.07996H1699.47V10.1699H1704.56V5.07996Z" fill="#485F31"/>
<path d="M1699.47 20.3499V15.2599V10.1699H1694.38V15.2599V20.3499V25.4399H1699.47V20.3499Z" fill="#485F31"/>
<path d="M1694.39 45.7999H1689.3V50.89H1694.39V45.7999Z" fill="#485F31"/>
<path d="M1694.39 25.4399H1689.3V30.53H1694.39V25.4399Z" fill="#485F31"/>
<path d="M1689.3 35.62V30.53H1684.21V35.62V40.71V45.8H1689.3V40.71V35.62Z" fill="#485F31"/>
<path d="M1308.21 50.03H1304.43V53.81H1308.21V50.03Z" fill="#485F31"/>
<path d="M1308.21 38.6799V42.46V46.2499V50.03H1311.99V46.2499V42.46V38.6799H1308.21Z" fill="#485F31"/>
<path d="M1308.21 34.8999H1304.43V38.6799H1308.21V34.8999Z" fill="#485F31"/>
<path d="M1296.87 53.8099H1293.09V50.03H1296.87V46.2499H1293.09V42.46V38.6799V34.9V31.1199V27.34H1289.31V31.1199V34.9V38.6799V42.46H1285.52V46.2499H1289.31V50.03V53.8099H1285.52H1281.74H1277.96V57.59H1281.74H1285.52H1289.31V61.3699V65.15H1293.09V61.3699V57.59H1296.87H1300.65H1304.43V53.8099H1300.65H1296.87Z" fill="#485F31"/>
<path d="M1300.65 31.1199V34.9H1304.43V31.1199V27.34V23.5599H1300.65V27.34V31.1199Z" fill="#485F31"/>
<path d="M1300.65 42.46H1296.87V46.2399H1300.65V42.46Z" fill="#485F31"/>
<path d="M1300.65 19.78H1296.87V23.56H1300.65V19.78Z" fill="#485F31"/>
<path d="M1293.09 19.78H1296.87V16H1293.09H1289.31H1285.52V19.78H1289.31H1293.09Z" fill="#485F31"/>
<path d="M1285.52 38.6799H1281.74V42.46H1285.52V38.6799Z" fill="#485F31"/>
<path d="M1285.52 19.78H1281.74V23.56H1285.52V19.78Z" fill="#485F31"/>
<path d="M1281.74 31.1199V27.34V23.5599H1277.96V27.34V31.1199V34.9H1281.74V31.1199Z" fill="#485F31"/>
<path d="M1277.96 50.03H1274.18V53.81H1277.96V50.03Z" fill="#485F31"/>
<path d="M1277.96 34.8999H1274.18V38.6799H1277.96V34.8999Z" fill="#485F31"/>
<path d="M1274.18 42.46V38.6799H1270.4V42.46V46.2499V50.03H1274.18V46.2499V42.46Z" fill="#485F31"/>
<path d="M439.1 45.7999H434.01V50.89H439.1V45.7999Z" fill="#485F31"/>
<path d="M439.1 30.53V35.62V40.71V45.8H444.18V40.71V35.62V30.53H439.1Z" fill="#485F31"/>
<path d="M439.1 25.4399H434.01V30.53H439.1V25.4399Z" fill="#485F31"/>
<path d="M423.83 50.88H418.74V45.8H423.83V40.71H418.74V35.62V30.53V25.44V20.35V15.26H413.65V20.35V25.44V30.53V35.62H408.56V40.71H413.65V45.8V50.88H408.56H403.47H398.38V55.97H403.47H408.56H413.65V61.06V66.15H418.74V61.06V55.97H423.83H428.92H434.01V50.88H428.92H423.83Z" fill="#485F31"/>
<path d="M428.92 20.3499V25.4399H434.01V20.3499V15.2599V10.1699H428.92V15.2599V20.3499Z" fill="#485F31"/>
<path d="M428.92 35.6199H423.83V40.7099H428.92V35.6199Z" fill="#485F31"/>
<path d="M428.92 5.07996H423.83V10.1699H428.92V5.07996Z" fill="#485F31"/>
<path d="M418.74 5.08002H423.83V0H418.74H413.65H408.56V5.08002H413.65H418.74Z" fill="#485F31"/>
<path d="M408.56 30.53H403.47V35.62H408.56V30.53Z" fill="#485F31"/>
<path d="M408.56 5.07996H403.47V10.1699H408.56V5.07996Z" fill="#485F31"/>
<path d="M403.47 20.3499V15.2599V10.1699H398.38V15.2599V20.3499V25.4399H403.47V20.3499Z" fill="#485F31"/>
<path d="M398.39 45.7999H393.3V50.89H398.39V45.7999Z" fill="#485F31"/>
<path d="M398.39 25.4399H393.3V30.53H398.39V25.4399Z" fill="#485F31"/>
<path d="M393.3 35.62V30.53H388.21V35.62V40.71V45.8H393.3V40.71V35.62Z" fill="#485F31"/>
<path d="M834.09 33H841.76V35.55H844.31V38.11H846.87V35.55H849.42V33H857.09V35.55H851.98V38.11H854.53V53.44H851.98V55.99H849.42V58.55H846.87V61.1H844.31V58.55H841.76V55.99H839.2V53.44H836.65V50.88H834.09V48.33H831.54V45.77H828.98V38.11H831.54V35.55H834.09V33Z" fill="#485F31"/>
<path d="M859.64 35.5499V38.1099H862.2V45.77H859.64V48.33H857.09V50.8799H854.53V43.22H857.09V38.1099H854.53V35.5499H859.64Z" fill="#485F31"/>
</svg>
