<svg width="26" height="23" viewBox="0 0 26 23" fill="none" xmlns="http://www.w3.org/2000/svg">
<g id="Group 48098691">
<g id="Group">
<path id="Vector" d="M23.7881 0.249878L14.4128 7.28072L16.1563 3.13721L23.7881 0.249878Z" fill="#E17726" stroke="#E17726" stroke-width="0.25" stroke-linecap="round" stroke-linejoin="round"/>
<g id="Group_2">
<path id="Vector_2" d="M2.1687 0.249878L11.4605 7.34633L9.80058 3.13721L2.1687 0.249878Z" fill="#E27625" stroke="#E27625" stroke-width="0.25" stroke-linecap="round" stroke-linejoin="round"/>
<path id="Vector_3" d="M20.415 16.5532L17.9204 20.4154L23.2618 21.906L24.7919 16.6375L20.415 16.5532Z" fill="#E27625" stroke="#E27625" stroke-width="0.25" stroke-linecap="round" stroke-linejoin="round"/>
<path id="Vector_4" d="M1.17554 16.6375L2.69635 21.906L8.02847 20.4154L5.54323 16.5532L1.17554 16.6375Z" fill="#E27625" stroke="#E27625" stroke-width="0.25" stroke-linecap="round" stroke-linejoin="round"/>
<path id="Vector_5" d="M7.74044 10.0284L6.25671 12.297L11.5425 12.5407L11.3662 6.77545L7.74044 10.0284Z" fill="#E27625" stroke="#E27625" stroke-width="0.25" stroke-linecap="round" stroke-linejoin="round"/>
<path id="Vector_6" d="M18.2185 10.0281L14.537 6.70953L14.4165 12.5405L19.7022 12.2967L18.2185 10.0281Z" fill="#E27625" stroke="#E27625" stroke-width="0.25" stroke-linecap="round" stroke-linejoin="round"/>
<path id="Vector_7" d="M8.02576 20.4122L11.225 18.8467L8.47089 16.6718L8.02576 20.4122Z" fill="#E27625" stroke="#E27625" stroke-width="0.25" stroke-linecap="round" stroke-linejoin="round"/>
<path id="Vector_8" d="M14.7283 18.8468L17.9182 20.4123L17.4824 16.6719L14.7283 18.8468Z" fill="#E27625" stroke="#E27625" stroke-width="0.25" stroke-linecap="round" stroke-linejoin="round"/>
</g>
<path id="Vector_9" d="M17.9188 20.417L14.7288 18.8515L14.9884 20.9514L14.9606 21.8419L17.9188 20.417Z" fill="#D5BFB2" stroke="#D5BFB2" stroke-width="0.25" stroke-linecap="round" stroke-linejoin="round"/>
<path id="Vector_10" d="M8.02673 20.4168L10.9942 21.8418L10.9756 20.9512L11.226 18.8513L8.02673 20.4168Z" fill="#D5BFB2" stroke="#D5BFB2" stroke-width="0.25" stroke-linecap="round" stroke-linejoin="round"/>
<path id="Vector_11" d="M11.0504 15.2858L8.39819 14.4984L10.2714 13.6265L11.0504 15.2858Z" fill="#233447" stroke="#233447" stroke-width="0.25" stroke-linecap="round" stroke-linejoin="round"/>
<path id="Vector_12" d="M14.9021 15.2858L15.6811 13.6265L17.5635 14.4984L14.9021 15.2858Z" fill="#233447" stroke="#233447" stroke-width="0.25" stroke-linecap="round" stroke-linejoin="round"/>
<path id="Vector_13" d="M8.0259 20.4153L8.48952 16.553L5.54065 16.6374L8.0259 20.4153Z" fill="#CC6228" stroke="#CC6228" stroke-width="0.25" stroke-linecap="round" stroke-linejoin="round"/>
<path id="Vector_14" d="M17.4645 16.5532L17.9189 20.4154L20.4134 16.6376L17.4645 16.5532Z" fill="#CC6228" stroke="#CC6228" stroke-width="0.25" stroke-linecap="round" stroke-linejoin="round"/>
<path id="Vector_15" d="M19.6986 12.2994L14.4128 12.5431L14.9043 15.2898L15.6833 13.6306L17.5657 14.5024L19.6986 12.2994Z" fill="#CC6228" stroke="#CC6228" stroke-width="0.25" stroke-linecap="round" stroke-linejoin="round"/>
<path id="Vector_16" d="M8.39529 14.5024L10.2685 13.6306L11.0475 15.2898L11.5389 12.5431L6.25317 12.2994L8.39529 14.5024Z" fill="#CC6228" stroke="#CC6228" stroke-width="0.25" stroke-linecap="round" stroke-linejoin="round"/>
<path id="Vector_17" d="M6.25317 12.2994L8.46949 16.6773L8.39532 14.5024L6.25317 12.2994Z" fill="#E27525" stroke="#E27525" stroke-width="0.25" stroke-linecap="round" stroke-linejoin="round"/>
<path id="Vector_18" d="M17.5701 14.5024L17.4867 16.6773L19.703 12.2994L17.5701 14.5024Z" fill="#E27525" stroke="#E27525" stroke-width="0.25" stroke-linecap="round" stroke-linejoin="round"/>
<path id="Vector_19" d="M11.5388 12.5369L11.0472 15.2836L11.6685 18.5271L11.8077 14.2524L11.5388 12.5369Z" fill="#E27525" stroke="#E27525" stroke-width="0.25" stroke-linecap="round" stroke-linejoin="round"/>
<path id="Vector_20" d="M14.4124 12.5369L14.1527 14.2431L14.2826 18.5271L14.9039 15.2836L14.4124 12.5369Z" fill="#E27525" stroke="#E27525" stroke-width="0.25" stroke-linecap="round" stroke-linejoin="round"/>
<path id="Vector_21" d="M14.9041 15.2841L14.2828 18.5276L14.728 18.8464L17.4821 16.6715L17.5656 14.4966L14.9041 15.2841Z" fill="#F5841F" stroke="#F5841F" stroke-width="0.25" stroke-linecap="round" stroke-linejoin="round"/>
<path id="Vector_22" d="M8.39819 14.4966L8.47243 16.6715L11.2265 18.8464L11.6717 18.5276L11.0504 15.2841L8.39819 14.4966Z" fill="#F5841F" stroke="#F5841F" stroke-width="0.25" stroke-linecap="round" stroke-linejoin="round"/>
<path id="Vector_23" d="M14.9631 21.8409L14.991 20.9503L14.7498 20.744H11.2075L10.9756 20.9503L10.9942 21.8409L8.02673 20.416L9.0654 21.2784L11.1704 22.7502H14.7777L16.892 21.2784L17.9213 20.416L14.9631 21.8409Z" fill="#C0AC9D" stroke="#C0AC9D" stroke-width="0.25" stroke-linecap="round" stroke-linejoin="round"/>
<path id="Vector_24" d="M14.7245 18.8495L14.2793 18.5307H11.6643L11.2192 18.8495L10.9688 20.9493L11.2006 20.7431H14.743L14.9841 20.9493L14.7245 18.8495Z" fill="#161616" stroke="#161616" stroke-width="0.25" stroke-linecap="round" stroke-linejoin="round"/>
<path id="Vector_25" d="M24.1874 7.74004L24.9757 3.85904L23.7887 0.249878L14.7288 7.04638L18.2154 10.0274L23.1395 11.4805L24.2245 10.1962L23.7515 9.8493L24.5027 9.15564L23.9278 8.70565L24.6789 8.12442L24.1874 7.74004Z" fill="#763E1A" stroke="#763E1A" stroke-width="0.25" stroke-linecap="round" stroke-linejoin="round"/>
<path id="Vector_26" d="M0.975586 3.85904L1.77308 7.74004L1.26306 8.12442L2.02346 8.70565L1.44852 9.15564L2.19965 9.8493L1.72672 10.1962L2.81169 11.4805L7.73581 10.0274L11.2225 7.04638L2.16256 0.249878L0.975586 3.85904Z" fill="#763E1A" stroke="#763E1A" stroke-width="0.25" stroke-linecap="round" stroke-linejoin="round"/>
<path id="Vector_27" d="M23.1434 11.4849L18.2193 10.0318L19.703 12.3004L17.4867 16.6783L20.417 16.6408H24.794L23.1434 11.4849Z" fill="#F5841F" stroke="#F5841F" stroke-width="0.25" stroke-linecap="round" stroke-linejoin="round"/>
<path id="Vector_28" d="M7.73499 10.0318L2.81092 11.4849L1.16956 16.6408H5.53724L8.46758 16.6783L6.25128 12.3004L7.73499 10.0318Z" fill="#F5841F" stroke="#F5841F" stroke-width="0.25" stroke-linecap="round" stroke-linejoin="round"/>
<path id="Vector_29" d="M14.4119 12.5395L14.7272 7.04613L16.1554 3.13696H9.79395L11.222 7.04613L11.5373 12.5395L11.6578 14.2644L11.6671 18.5298H14.2822L14.2915 14.2644L14.4119 12.5395Z" fill="#F5841F" stroke="#F5841F" stroke-width="0.25" stroke-linecap="round" stroke-linejoin="round"/>
</g>
</g>
</svg>
