<svg width="25" height="25" viewBox="0 0 25 25" fill="none" xmlns="http://www.w3.org/2000/svg">
<g id="okx_wallet_icon 2">
<g clip-path="url(#clip0_38_2828)">
<path id="Vector" d="M24.9756 0.5H0.975586V24.5H24.9756V0.5Z" fill="black"/>
<path id="Vector_2" fill-rule="evenodd" clip-rule="evenodd" d="M10.4304 5.74445H6.52081C6.35473 5.74445 6.22009 5.87909 6.22009 6.04517V9.95477C6.22009 10.1209 6.35473 10.2555 6.52081 10.2555H10.4304C10.5965 10.2555 10.7312 10.1209 10.7312 9.95477V6.04517C10.7312 5.87909 10.5965 5.74445 10.4304 5.74445ZM14.9434 10.2555H11.0338C10.8678 10.2555 10.7331 10.3902 10.7331 10.5563V14.4659C10.7331 14.632 10.8678 14.7666 11.0338 14.7666H14.9434C15.1095 14.7666 15.2442 14.632 15.2442 14.4659V10.5563C15.2442 10.3902 15.1095 10.2555 14.9434 10.2555ZM15.543 5.74445H19.4526C19.6187 5.74445 19.7534 5.87909 19.7534 6.04517V9.95477C19.7534 10.1209 19.6187 10.2555 19.4526 10.2555H15.543C15.3769 10.2555 15.2423 10.1209 15.2423 9.95477V6.04517C15.2423 5.87909 15.3769 5.74445 15.543 5.74445ZM10.4304 14.7666H6.52081C6.35473 14.7666 6.22009 14.9013 6.22009 15.0674V18.977C6.22009 19.143 6.35473 19.2777 6.52081 19.2777H10.4304C10.5965 19.2777 10.7312 19.143 10.7312 18.977V15.0674C10.7312 14.9013 10.5965 14.7666 10.4304 14.7666ZM15.543 14.7666H19.4526C19.6187 14.7666 19.7534 14.9013 19.7534 15.0674V18.977C19.7534 19.143 19.6187 19.2777 19.4526 19.2777H15.543C15.3769 19.2777 15.2423 19.143 15.2423 18.977V15.0674C15.2423 14.9013 15.3769 14.7666 15.543 14.7666Z" fill="white"/>
</g>
</g>
<defs>
<clipPath id="clip0_38_2828">
<rect x="0.975586" y="0.5" width="24" height="24" rx="4" fill="white"/>
</clipPath>
</defs>
</svg>
