<svg width="144" height="128" viewBox="0 0 144 128" fill="none" xmlns="http://www.w3.org/2000/svg">
<g id="Group 17">
<rect id="Rectangle 66" y="104" width="144" height="24" fill="#09360F"/>
<path id="Union" fill-rule="evenodd" clip-rule="evenodd" d="M128 -0.000183105H15.9999V5.17628H10.3528V94.1175H15.9999V99.2939H128V94.1175H133.647V5.17628H128V-0.000183105Z" fill="#021B02"/>
<rect id="Rectangle 61" x="16" y="4.7998" width="112" height="89.6" fill="#C8EA8E"/>
<rect id="Rectangle 60" x="19.2" y="9.59982" width="105.6" height="81.6" fill="#395111"/>
<rect id="Rectangle 62" x="25.6001" y="14.3999" width="99.2" height="76.8" fill="#398D44"/>
<rect id="Rectangle 74" x="118.4" y="14.3999" width="6.4" height="76.8" fill="#395111"/>
<path id="Union_2" fill-rule="evenodd" clip-rule="evenodd" d="M128 9.59985H124.8V90.5974L15.7925 90.5974L15.7925 94.7532L128 94.7532L128 91.1999V9.59985Z" fill="#BAC304"/>
<rect id="Rectangle 63" x="30.3999" y="20.7999" width="83.2" height="57.6" fill="#021B02"/>
<rect id="Rectangle 75" x="35.4424" y="25.5999" width="73.6" height="48" fill="white"/>
<rect id="Rectangle 70" width="16" height="4.8" transform="matrix(1 0 0 -1 97.6003 90.4103)" fill="#C8EA8E"/>
<rect id="Rectangle 71" width="6.4" height="4.8" transform="matrix(1 0 0 -1 25.6001 90.4103)" fill="#021B02"/>
<rect id="Rectangle 72" width="12.8" height="4.8" transform="matrix(1 0 0 -1 35.2 90.4103)" fill="#021B02"/>
<rect id="Rectangle 73" width="6.4" height="4.8" transform="matrix(1 0 0 -1 51.2002 90.4103)" fill="#021B02"/>
<rect id="Rectangle 64" x="4.80005" y="99.2" width="134.4" height="4.8" fill="#09360F"/>
<rect id="Rectangle 65" x="4.80005" y="104" width="134.4" height="19.2" fill="#C8EA8E"/>
<rect id="Rectangle 67" x="9.6001" y="108.8" width="129.6" height="14.4" fill="#398D44"/>
<rect id="Rectangle 68" x="9.6001" y="118.4" width="129.6" height="4.8" fill="#395111"/>
<rect id="Rectangle 69" x="99.2004" y="113.6" width="33.6" height="4.8" fill="#021B02"/>
</g>
</svg>
