<svg width="47" height="46" viewBox="0 0 47 46" fill="none" xmlns="http://www.w3.org/2000/svg">
<path fill-rule="evenodd" clip-rule="evenodd" d="M16.5212 2H30.4788V3.561H32.7576V5.12203H35.3211V6.68303H37.8848V8.46703H40.1636V9.80499H42.4423V11.366H44.7212V13.15H47L47 15.0524L47 20.9981V22.3579V26.307L47 28.4133L47 32.1907V35.155H44.7212V36.8902H42.4423V38.4085H40.1636V39.7099H37.8848V41.4451H35.3211V42.9634H32.7576V44.4817H30.4788V46H16.5212V44.4817H14.2424V42.9634H11.6787V41.4451H9.11511V39.7099H6.8363V38.4085H4.5575V36.8902H2.27881V35.155H0V32.1907V28.4133V26.307V22.3579V20.9981V15.0524V13.15H2.27881V11.366H4.5575V9.80499H6.8363V8.46703H9.11511V6.68303H11.6787V5.12203H14.2424V3.561H16.5212V2Z" fill="#021B02"/>
<path fill-rule="evenodd" clip-rule="evenodd" d="M29.8848 7.79736H17.1151V9.36106H15.0303V10.9248H12.6848V12.4885H10.3394V14.2756H8.25452V15.6159H6.16968V17.1796H4.08484V18.9667H2V32.1465H4.08484V33.9336H6.16968V35.4973H8.25452V36.8376H10.3394V38.6247H12.6848V40.1884H15.0303V41.7521H17.1151V43.3158H29.8848V41.7521H31.9697V40.1884H34.3151V38.6247H36.6606V36.8376H38.7454V35.4973H40.8303V33.9336H42.9151V32.1465H45V18.9667H42.9151V17.1796H40.8303V15.6159H38.7454V14.2756H36.6606V12.4885H34.3151V10.9248H31.9697V9.36106H29.8848V7.79736Z" fill="#057003"/>
<path fill-rule="evenodd" clip-rule="evenodd" d="M29.8848 0H17.1151V1.60767H15.0303V3.21537H12.6848V4.82305H10.3394V6.6604H8.25452V8.0384H6.16968V9.6461H4.08484V11.4834H2V25.0339H4.08484V26.8713H6.16968V28.4789H8.25452V29.857H10.3394V31.6943H12.6848V33.302H15.0303V34.9097H17.1151V36.5174H29.8848V34.9097H31.9697V33.302H34.3151V31.6943H36.6606V29.857H38.7454V28.4789H40.8303V26.8713H42.9151V25.0339H45V11.4834H42.9151V9.6461H40.8303V8.0384H38.7454V6.6604H36.6606V4.82305H34.3151V3.21537H31.9697V1.60767H29.8848V0Z" fill="#398D44"/>
<path fill-rule="evenodd" clip-rule="evenodd" d="M29.8849 9.79736H17.1152V11.165H15.0303V12.5327H12.6848V13.9003H10.3394V15.4633H8.25452V16.6356H6.1698V18.0033H4.08484V19.5663H2V31.0936H4.08484V32.6566H6.1698V34.0242H8.25452V35.1965H10.3394V36.7595H12.6848V38.1272H15.0303V39.4948H17.1152V40.8625H29.8849V39.4948H31.9697V38.1272H34.3151V36.7595H36.6606V35.1965H38.7454V34.0242H40.8304V32.6566H42.9151V31.0936H45V19.5663H42.9151V18.0033H40.8304V16.6356H38.7454V15.4633H36.6606V13.9003H34.3151V12.5327H31.9697V11.165H29.8849V9.79736Z" fill="#BAC304"/>
<path fill-rule="evenodd" clip-rule="evenodd" d="M29.8848 2H17.1151V3.63259H15.0303V5.26516H12.6848V6.89776H10.3394V8.7636H8.25452V10.163H6.16968V11.7956H4.08484V13.6614H2V27.4218H4.08484V29.2877H6.16968V30.9203H8.25452V32.3196H10.3394V34.1854H12.6848V35.818H15.0303V37.4507H17.1151V39.0833H29.8848V37.4507H31.9697V35.818H34.3151V34.1854H36.6606V32.3196H38.7454V30.9203H40.8303V29.2877H42.9151V27.4218H45V13.6614H42.9151V11.7956H40.8303V10.163H38.7454V8.7636H36.6606V6.89776H34.3151V5.26516H31.9697V3.63259H29.8848V2Z" fill="white"/>
</svg>
