<svg width="260" height="100" viewBox="0 0 260 100" fill="none" xmlns="http://www.w3.org/2000/svg">
<path fill-rule="evenodd" clip-rule="evenodd" d="M243.227 0H16.3181V5.69104H8.08893V94.3089H16.3181V100H243.227V94.3089H251.911V88.6179H260V11.3821H251.911V5.69104H243.227V0ZM8.08889 11.3821H0V88.6179H8.08889V11.3821Z" fill="#021B02"/>
<path fill-rule="evenodd" clip-rule="evenodd" d="M8.84354 68H16.3997V73.364H244.163V68H251.719V88.115H244.163V92.8085H16.3996V88.115H8.84354V68Z" fill="white"/>
<path fill-rule="evenodd" clip-rule="evenodd" d="M8.84354 82H16.3997V84.9311H244.163V82H251.719V90.7933H244.163V93.7244H16.3996V90.7933H8.84354V82Z" fill="#C8EA8E"/>
<path fill-rule="evenodd" clip-rule="evenodd" d="M112.933 84.5752H55.1056V93.5883H112.933L112.933 88.438H119.872V84.5752H112.933Z" fill="#BAC304"/>
<path fill-rule="evenodd" clip-rule="evenodd" d="M92.1152 84.5752H34.2877V93.5883H92.1152V84.5752ZM99.0545 84.5752H92.1152V88.438H99.0545V84.5752Z" fill="#398D44"/>
<path fill-rule="evenodd" clip-rule="evenodd" d="M8.84354 82H16.3997V84.5752H73.6104H80.5497V88.438H73.6104V93.5883H15.7828V90.7933H8.84354V82Z" fill="#057003"/>
<path fill-rule="evenodd" clip-rule="evenodd" d="M252.041 82H244.485V84.5752H187.274V93.5883H245.102V90.7933H252.041V82ZM187.274 84.5752H180.335V88.438H187.274V84.5752Z" fill="white"/>
<path fill-rule="evenodd" clip-rule="evenodd" d="M244.163 7.8526H16.3995V12.4859H8.84354V75.3667H16.3995V80H244.163V7.8526ZM244.163 12.4859H251.719V75.3667H244.163V12.4859Z" fill="#395111"/>
</svg>
