<svg width="260" height="100" viewBox="0 0 260 100" fill="none" xmlns="http://www.w3.org/2000/svg">
<path fill-rule="evenodd" clip-rule="evenodd" d="M243.227 0H16.3181V5.69104H8.08893V94.3089H16.3181V100H243.227V94.3089H251.911V88.6179H260V11.3821H251.911V5.69104H243.227V0ZM8.08889 11.3821H0V88.6179H8.08889V11.3821Z" fill="#021B02"/>
<path fill-rule="evenodd" clip-rule="evenodd" d="M244.163 7.8526H16.3995V11.9722H8.84354V67.8804H16.3995V72H244.163V7.8526ZM244.163 11.9722H251.719V67.8804H244.163V11.9722Z" fill="#C8EA8E"/>
<path fill-rule="evenodd" clip-rule="evenodd" d="M8.84354 63.9703H16.3997V70.2056H244.163V63.9703H251.719V87.3527H244.163V92.8085H16.3996V87.3527H8.84354V63.9703Z" fill="white"/>
<path fill-rule="evenodd" clip-rule="evenodd" d="M8.84354 71.9008H16.3997V77.3567H244.163V71.9008H251.719V88.2685H244.163V93.7244H16.3996V88.2685H8.84354V71.9008Z" fill="#C8EA8E"/>
<path fill-rule="evenodd" clip-rule="evenodd" d="M112.933 76.6942H55.1056V93.4711H112.933L112.933 83.8843H119.872V76.6942H112.933Z" fill="#BAC304"/>
<path fill-rule="evenodd" clip-rule="evenodd" d="M92.1152 76.6942H34.2877V93.4711H92.1152L92.1152 83.8843H99.0545V76.6942H92.1152Z" fill="#398D44"/>
<path fill-rule="evenodd" clip-rule="evenodd" d="M8.84354 71.9008H16.3997V76.6942H73.6104H80.5497V83.8843H73.6104V93.4711H15.7828V88.2685H8.84354V71.9008Z" fill="#057003"/>
<path fill-rule="evenodd" clip-rule="evenodd" d="M252.041 71.9008H244.485V76.6942H187.274V93.4711H245.102V88.2685H252.041V71.9008ZM187.274 76.6942H180.335V83.8843H187.274V76.6942Z" fill="white"/>
</svg>
